<?xml version="1.0" encoding="iso-8859-1"?>
<!-- Generator: Adobe Illustrator 19.0.0, SVG Export Plug-In . SVG Version: 6.00 Build 0)  -->
<svg version="1.1" id="Layer_1" xmlns="http://www.w3.org/2000/svg" xmlns:xlink="http://www.w3.org/1999/xlink" x="0px" y="0px"
	 viewBox="0 0 327.144 327.144" style="enable-background:new 0 0 327.144 327.144;" xml:space="preserve">
<g>
	<g>
		<path style="fill:#005FAD;" d="M206.734,21.379H32.055C14.424,21.379,0,35.803,0,53.433v76.385
			c0,12.708,7.496,23.748,18.283,28.924v34.956l48.588-31.826h139.863c17.631,0,32.055-14.424,32.055-32.054V53.433
			C238.789,35.803,224.365,21.379,206.734,21.379z"/>
		<path style="fill:#0071CE;" d="M206.734,9.713H32.055C14.424,9.713,0,24.137,0,41.767v76.385c0,12.708,7.496,23.748,18.283,28.923
			v34.956l48.588-31.825h139.863c17.631,0,32.055-14.424,32.055-32.054V41.767C238.789,24.137,224.365,9.713,206.734,9.713z"/>
		<g>
			<path style="fill:#FFFFFF;" d="M187.262,55.744H51.529c-2.361,0-4.273-1.914-4.273-4.274c0-2.36,1.912-4.274,4.273-4.274h135.732
				c2.359,0,4.273,1.914,4.273,4.274C191.535,53.83,189.621,55.744,187.262,55.744z"/>
			<path style="fill:#FFFFFF;" d="M187.262,84.232H51.529c-2.361,0-4.273-1.913-4.273-4.273s1.912-4.274,4.273-4.274h135.732
				c2.359,0,4.273,1.914,4.273,4.274C191.535,82.319,189.621,84.232,187.262,84.232z"/>
			<path style="fill:#FFFFFF;" d="M187.262,112.721H51.529c-2.361,0-4.273-1.914-4.273-4.274c0-2.359,1.912-4.273,4.273-4.273
				h135.732c2.359,0,4.273,1.914,4.273,4.273C191.535,110.807,189.621,112.721,187.262,112.721z"/>
		</g>
	</g>
	<g>
		<path style="fill:#4F7FBA;" d="M295.09,145.113H120.408c-17.629,0-32.053,14.424-32.053,32.053v76.386
			c0,17.629,14.424,32.054,32.053,32.054h139.865l48.586,31.825v-34.956c10.789-5.175,18.285-16.215,18.285-28.923v-76.386
			C327.145,159.536,312.719,145.113,295.09,145.113z"/>
		<path style="fill:#5E96DC;" d="M295.09,133.445H120.408c-17.629,0-32.053,14.425-32.053,32.054v76.386
			c0,17.629,14.424,32.053,32.053,32.053h139.865l48.586,31.826v-34.956c10.789-5.176,18.285-16.216,18.285-28.923v-76.386
			C327.145,147.87,312.719,133.445,295.09,133.445z"/>
		<g>
			<path style="fill:#FFFFFF;" d="M275.615,179.477H139.883c-2.359,0-4.273-1.913-4.273-4.273s1.914-4.273,4.273-4.273h135.732
				c2.359,0,4.273,1.913,4.273,4.273C279.889,177.563,277.975,179.477,275.615,179.477z"/>
			<path style="fill:#FFFFFF;" d="M275.615,207.966H139.883c-2.359,0-4.273-1.914-4.273-4.274s1.914-4.273,4.273-4.273h135.732
				c2.359,0,4.273,1.913,4.273,4.273C279.889,206.052,277.975,207.966,275.615,207.966z"/>
			<path style="fill:#FFFFFF;" d="M275.615,236.453H139.883c-2.359,0-4.273-1.913-4.273-4.273s1.914-4.273,4.273-4.273h135.732
				c2.359,0,4.273,1.913,4.273,4.273C279.889,234.54,277.975,236.453,275.615,236.453z"/>
		</g>
	</g>
</g>
<g>
</g>
<g>
</g>
<g>
</g>
<g>
</g>
<g>
</g>
<g>
</g>
<g>
</g>
<g>
</g>
<g>
</g>
<g>
</g>
<g>
</g>
<g>
</g>
<g>
</g>
<g>
</g>
<g>
</g>
</svg>
