<?xml version="1.0" encoding="UTF-8" standalone="no"?>
<svg
   xmlns:dc="http://purl.org/dc/elements/1.1/"
   xmlns:cc="http://creativecommons.org/ns#"
   xmlns:rdf="http://www.w3.org/1999/02/22-rdf-syntax-ns#"
   xmlns:svg="http://www.w3.org/2000/svg"
   xmlns="http://www.w3.org/2000/svg"
   xmlns:sodipodi="http://sodipodi.sourceforge.net/DTD/sodipodi-0.dtd"
   xmlns:inkscape="http://www.inkscape.org/namespaces/inkscape"
   inkscape:version="1.0beta2 (2b71d25, 2019-12-03)"
   sodipodi:docname="download.svg"
   xml:space="preserve"
   style="enable-background:new 0 0 512.171 512.171;"
   viewBox="0 0 512.171 512.171"
   y="0px"
   x="0px"
   id="Capa_1"
   version="1.1"><metadata
   id="metadata51"><rdf:RDF><cc:Work
       rdf:about=""><dc:format>image/svg+xml</dc:format><dc:type
         rdf:resource="http://purl.org/dc/dcmitype/StillImage" /><dc:title></dc:title></cc:Work></rdf:RDF></metadata><defs
   id="defs49" /><sodipodi:namedview
   inkscape:current-layer="Capa_1"
   inkscape:window-maximized="0"
   inkscape:window-y="0"
   inkscape:window-x="0"
   inkscape:cy="271.8716"
   inkscape:cx="299.93577"
   inkscape:zoom="1.1402441"
   showgrid="false"
   id="namedview47"
   inkscape:window-height="900"
   inkscape:window-width="1440"
   inkscape:pageshadow="2"
   inkscape:pageopacity="0"
   guidetolerance="10"
   gridtolerance="10"
   objecttolerance="10"
   borderopacity="1"
   inkscape:document-rotation="0"
   bordercolor="#666666"
   pagecolor="#ffffff" />
<g
   transform="rotate(90,256.08517,256.086)"
   id="g14">
	<g
   id="g12">
		<path
   inkscape:connector-curvature="0"
   id="path10"
   d="m 479.046,283.925 c -1.664,-3.989 -5.547,-6.592 -9.856,-6.592 H 352.305 V 10.667 C 352.305,4.779 347.526,0 341.638,0 H 170.971 c -5.888,0 -10.667,4.779 -10.667,10.667 V 277.334 H 42.971 c -4.309,0 -8.192,2.603 -9.856,6.571 -1.643,3.989 -0.747,8.576 2.304,11.627 l 212.8,213.504 c 2.005,2.005 4.715,3.136 7.552,3.136 2.837,0 5.547,-1.131 7.552,-3.115 L 476.742,295.553 c 3.051,-3.052 3.968,-7.638 2.304,-11.628 z" />
	</g>
</g>
<g
   id="g16">
</g>
<g
   id="g18">
</g>
<g
   id="g20">
</g>
<g
   id="g22">
</g>
<g
   id="g24">
</g>
<g
   id="g26">
</g>
<g
   id="g28">
</g>
<g
   id="g30">
</g>
<g
   id="g32">
</g>
<g
   id="g34">
</g>
<g
   id="g36">
</g>
<g
   id="g38">
</g>
<g
   id="g40">
</g>
<g
   id="g42">
</g>
<g
   id="g44">
</g>
</svg>
